<?xml version="1.0" encoding="us-ascii" standalone="no"?><svg xmlns="http://www.w3.org/2000/svg" xmlns:xlink="http://www.w3.org/1999/xlink" contentStyleType="text/css" height="1723px" preserveAspectRatio="none" style="width:1566px;height:1723px;background:#FFFFFF;" version="1.1" viewBox="0 0 1566 1723" width="1566px" zoomAndPan="magnify"><defs/><g><!--cluster app--><g id="cluster_app"><path d="M8.5,6 L39.5,6 A3.75,3.75 0 0 1 42,8.5 L49,28.2969 L1556.5,28.2969 A2.5,2.5 0 0 1 1559,30.7969 L1559,1633.5 A2.5,2.5 0 0 1 1556.5,1636 L8.5,1636 A2.5,2.5 0 0 1 6,1633.5 L6,8.5 A2.5,2.5 0 0 1 8.5,6 " fill="none" style="stroke:#000000;stroke-width:1.5;"/><line style="stroke:#000000;stroke-width:1.5;" x1="6" x2="49" y1="28.2969" y2="28.2969"/><text fill="#000000" font-family="sans-serif" font-size="14" font-weight="bold" lengthAdjust="spacing" textLength="30" x="10" y="20.9951">app</text></g><!--cluster org--><g id="cluster_org"><path d="M32.5,49 L60.5,49 A3.75,3.75 0 0 1 63,51.5 L70,71.2969 L1532.5,71.2969 A2.5,2.5 0 0 1 1535,73.7969 L1535,1609.5 A2.5,2.5 0 0 1 1532.5,1612 L32.5,1612 A2.5,2.5 0 0 1 30,1609.5 L30,51.5 A2.5,2.5 0 0 1 32.5,49 " fill="none" style="stroke:#000000;stroke-width:1.5;"/><line style="stroke:#000000;stroke-width:1.5;" x1="30" x2="70" y1="71.2969" y2="71.2969"/><text fill="#000000" font-family="sans-serif" font-size="14" font-weight="bold" lengthAdjust="spacing" textLength="27" x="34" y="63.9951">org</text></g><!--cluster globant--><g id="cluster_globant"><path d="M56.5,92 L120.5,92 A3.75,3.75 0 0 1 123,94.5 L130,114.2969 L1508.5,114.2969 A2.5,2.5 0 0 1 1511,116.7969 L1511,1585.5 A2.5,2.5 0 0 1 1508.5,1588 L56.5,1588 A2.5,2.5 0 0 1 54,1585.5 L54,94.5 A2.5,2.5 0 0 1 56.5,92 " fill="none" style="stroke:#000000;stroke-width:1.5;"/><line style="stroke:#000000;stroke-width:1.5;" x1="54" x2="130" y1="114.2969" y2="114.2969"/><text fill="#000000" font-family="sans-serif" font-size="14" font-weight="bold" lengthAdjust="spacing" textLength="63" x="58" y="106.9951">globant</text></g><!--cluster model--><g id="cluster_model"><path d="M347.5,135 L397.5,135 A3.75,3.75 0 0 1 400,137.5 L407,157.2969 L1484.5,157.2969 A2.5,2.5 0 0 1 1487,159.7969 L1487,1021.5 A2.5,2.5 0 0 1 1484.5,1024 L347.5,1024 A2.5,2.5 0 0 1 345,1021.5 L345,137.5 A2.5,2.5 0 0 1 347.5,135 " fill="#0000FF" style="stroke:#000000;stroke-width:1.5;"/><line style="stroke:#000000;stroke-width:1.5;" x1="345" x2="407" y1="157.2969" y2="157.2969"/><text fill="#000000" font-family="sans-serif" font-size="14" font-weight="bold" lengthAdjust="spacing" textLength="49" x="349" y="149.9951">model</text></g><!--cluster view--><g id="cluster_view"><path d="M80.5,1048 L117.5,1048 A3.75,3.75 0 0 1 120,1050.5 L127,1070.2969 L1199.5,1070.2969 A2.5,2.5 0 0 1 1202,1072.7969 L1202,1372.5 A2.5,2.5 0 0 1 1199.5,1375 L80.5,1375 A2.5,2.5 0 0 1 78,1372.5 L78,1050.5 A2.5,2.5 0 0 1 80.5,1048 " fill="#FFA500" style="stroke:#000000;stroke-width:1.5;"/><line style="stroke:#000000;stroke-width:1.5;" x1="78" x2="127" y1="1070.2969" y2="1070.2969"/><text fill="#000000" font-family="sans-serif" font-size="14" font-weight="bold" lengthAdjust="spacing" textLength="36" x="82" y="1062.9951">view</text></g><!--cluster controller--><g id="cluster_controller"><path d="M398.5,1399 L479.5,1399 A3.75,3.75 0 0 1 482,1401.5 L489,1421.2969 L881.5,1421.2969 A2.5,2.5 0 0 1 884,1423.7969 L884,1561.5 A2.5,2.5 0 0 1 881.5,1564 L398.5,1564 A2.5,2.5 0 0 1 396,1561.5 L396,1401.5 A2.5,2.5 0 0 1 398.5,1399 " fill="#FFFF00" style="stroke:#000000;stroke-width:1.5;"/><line style="stroke:#000000;stroke-width:1.5;" x1="396" x2="489" y1="1421.2969" y2="1421.2969"/><text fill="#000000" font-family="sans-serif" font-size="14" font-weight="bold" lengthAdjust="spacing" textLength="80" x="400" y="1413.9951">controller</text></g><!--class Person--><g id="elem_Person"><rect codeLine="9" fill="#F1F1F1" height="96.8906" id="Person" rx="2.5" ry="2.5" style="stroke:#181818;stroke-width:0.5;" width="225" x="1246" y="294.5"/><ellipse cx="1329.75" cy="310.5" fill="#ADD1B2" rx="11" ry="11" style="stroke:#181818;stroke-width:1.0;"/><path d="M1332.0938,306.1719 C1331.1563,305.7344 1330.5625,305.5938 1329.6875,305.5938 C1327.0625,305.5938 1325.0625,307.6719 1325.0625,310.3906 L1325.0625,311.5156 C1325.0625,314.0938 1327.1719,315.9844 1330.0625,315.9844 C1331.2813,315.9844 1332.4375,315.6875 1333.1875,315.1406 C1333.7656,314.7344 1334.0938,314.2813 1334.0938,313.8906 C1334.0938,313.4375 1333.7031,313.0469 1333.2344,313.0469 C1333.0156,313.0469 1332.8125,313.125 1332.625,313.3125 C1332.1719,313.7969 1332.1719,313.7969 1331.9844,313.8906 C1331.5625,314.1563 1330.875,314.2813 1330.1094,314.2813 C1328.0625,314.2813 1326.7656,313.1875 1326.7656,311.4844 L1326.7656,310.3906 C1326.7656,308.6094 1328.0156,307.2969 1329.75,307.2969 C1330.3281,307.2969 1330.9375,307.4531 1331.4063,307.7031 C1331.8906,307.9844 1332.0625,308.2031 1332.1563,308.6094 C1332.2188,309.0156 1332.25,309.1406 1332.3906,309.2656 C1332.5313,309.4063 1332.7656,309.5156 1332.9844,309.5156 C1333.25,309.5156 1333.5156,309.375 1333.6875,309.1563 C1333.7969,309 1333.8281,308.8125 1333.8281,308.3906 L1333.8281,306.9688 C1333.8281,306.5313 1333.8125,306.4063 1333.7188,306.25 C1333.5625,305.9844 1333.2813,305.8438 1332.9844,305.8438 C1332.6875,305.8438 1332.4844,305.9375 1332.2656,306.25 L1332.0938,306.1719 Z " fill="#000000"/><text fill="#000000" font-family="sans-serif" font-size="14" lengthAdjust="spacing" textLength="49" x="1350.25" y="315.3467">Person</text><line style="stroke:#181818;stroke-width:0.5;" x1="1247" x2="1470" y1="326.5" y2="326.5"/><text fill="#000000" font-family="sans-serif" font-size="14" lengthAdjust="spacing" textLength="105" x="1252" y="343.4951">#name: String</text><text fill="#000000" font-family="sans-serif" font-size="14" lengthAdjust="spacing" textLength="54" x="1252" y="359.792">#id: int</text><line style="stroke:#181818;stroke-width:0.5;" x1="1247" x2="1470" y1="367.0938" y2="367.0938"/><text fill="#000000" font-family="sans-serif" font-size="14" lengthAdjust="spacing" textLength="213" x="1252" y="384.0889">+Person(name: String, id: int)</text></g><!--class Student--><g id="elem_Student"><rect codeLine="16" fill="#F1F1F1" height="80.5938" id="Student" rx="2.5" ry="2.5" style="stroke:#181818;stroke-width:0.5;" width="297" x="491.5" y="170.5"/><ellipse cx="606.75" cy="186.5" fill="#ADD1B2" rx="11" ry="11" style="stroke:#181818;stroke-width:1.0;"/><path d="M609.0938,182.1719 C608.1563,181.7344 607.5625,181.5938 606.6875,181.5938 C604.0625,181.5938 602.0625,183.6719 602.0625,186.3906 L602.0625,187.5156 C602.0625,190.0938 604.1719,191.9844 607.0625,191.9844 C608.2813,191.9844 609.4375,191.6875 610.1875,191.1406 C610.7656,190.7344 611.0938,190.2813 611.0938,189.8906 C611.0938,189.4375 610.7031,189.0469 610.2344,189.0469 C610.0156,189.0469 609.8125,189.125 609.625,189.3125 C609.1719,189.7969 609.1719,189.7969 608.9844,189.8906 C608.5625,190.1563 607.875,190.2813 607.1094,190.2813 C605.0625,190.2813 603.7656,189.1875 603.7656,187.4844 L603.7656,186.3906 C603.7656,184.6094 605.0156,183.2969 606.75,183.2969 C607.3281,183.2969 607.9375,183.4531 608.4063,183.7031 C608.8906,183.9844 609.0625,184.2031 609.1563,184.6094 C609.2188,185.0156 609.25,185.1406 609.3906,185.2656 C609.5313,185.4063 609.7656,185.5156 609.9844,185.5156 C610.25,185.5156 610.5156,185.375 610.6875,185.1563 C610.7969,185 610.8281,184.8125 610.8281,184.3906 L610.8281,182.9688 C610.8281,182.5313 610.8125,182.4063 610.7188,182.25 C610.5625,181.9844 610.2813,181.8438 609.9844,181.8438 C609.6875,181.8438 609.4844,181.9375 609.2656,182.25 L609.0938,182.1719 Z " fill="#000000"/><text fill="#000000" font-family="sans-serif" font-size="14" lengthAdjust="spacing" textLength="58" x="627.25" y="191.3467">Student</text><line style="stroke:#181818;stroke-width:0.5;" x1="492.5" x2="787.5" y1="202.5" y2="202.5"/><text fill="#000000" font-family="sans-serif" font-size="14" lengthAdjust="spacing" textLength="61" x="497.5" y="219.4951">-age: int</text><line style="stroke:#181818;stroke-width:0.5;" x1="492.5" x2="787.5" y1="226.7969" y2="226.7969"/><text fill="#000000" font-family="sans-serif" font-size="14" lengthAdjust="spacing" textLength="285" x="497.5" y="243.792">+Student(name: String, id: int, age: int)</text></g><!--class TeacherFullTime--><g id="elem_TeacherFullTime"><rect codeLine="23" fill="#F1F1F1" height="113.1875" id="TeacherFullTime" rx="2.5" ry="2.5" style="stroke:#181818;stroke-width:0.5;" width="558" x="361" y="286.5"/><ellipse cx="576.75" cy="302.5" fill="#ADD1B2" rx="11" ry="11" style="stroke:#181818;stroke-width:1.0;"/><path d="M579.0938,298.1719 C578.1563,297.7344 577.5625,297.5938 576.6875,297.5938 C574.0625,297.5938 572.0625,299.6719 572.0625,302.3906 L572.0625,303.5156 C572.0625,306.0938 574.1719,307.9844 577.0625,307.9844 C578.2813,307.9844 579.4375,307.6875 580.1875,307.1406 C580.7656,306.7344 581.0938,306.2813 581.0938,305.8906 C581.0938,305.4375 580.7031,305.0469 580.2344,305.0469 C580.0156,305.0469 579.8125,305.125 579.625,305.3125 C579.1719,305.7969 579.1719,305.7969 578.9844,305.8906 C578.5625,306.1563 577.875,306.2813 577.1094,306.2813 C575.0625,306.2813 573.7656,305.1875 573.7656,303.4844 L573.7656,302.3906 C573.7656,300.6094 575.0156,299.2969 576.75,299.2969 C577.3281,299.2969 577.9375,299.4531 578.4063,299.7031 C578.8906,299.9844 579.0625,300.2031 579.1563,300.6094 C579.2188,301.0156 579.25,301.1406 579.3906,301.2656 C579.5313,301.4063 579.7656,301.5156 579.9844,301.5156 C580.25,301.5156 580.5156,301.375 580.6875,301.1563 C580.7969,301 580.8281,300.8125 580.8281,300.3906 L580.8281,298.9688 C580.8281,298.5313 580.8125,298.4063 580.7188,298.25 C580.5625,297.9844 580.2813,297.8438 579.9844,297.8438 C579.6875,297.8438 579.4844,297.9375 579.2656,298.25 L579.0938,298.1719 Z " fill="#000000"/><text fill="#000000" font-family="sans-serif" font-size="14" lengthAdjust="spacing" textLength="118" x="597.25" y="307.3467">TeacherFullTime</text><line style="stroke:#181818;stroke-width:0.5;" x1="362" x2="918" y1="318.5" y2="318.5"/><text fill="#000000" font-family="sans-serif" font-size="14" lengthAdjust="spacing" textLength="105" x="367" y="335.4951">-salary: double</text><text fill="#000000" font-family="sans-serif" font-size="14" lengthAdjust="spacing" textLength="155" x="367" y="351.792">-experienceYears: int</text><line style="stroke:#181818;stroke-width:0.5;" x1="362" x2="918" y1="359.0938" y2="359.0938"/><text fill="#000000" font-family="sans-serif" font-size="14" lengthAdjust="spacing" textLength="546" x="367" y="376.0889">+TeacherFullTime(name: String, id: int, salary: double, experienceYears: int)</text><text fill="#000000" font-family="sans-serif" font-size="14" lengthAdjust="spacing" textLength="195" x="367" y="392.3857">+calculatedSalary(): double</text></g><!--class TeacherPartTime--><g id="elem_TeacherPartTime"><rect codeLine="30" fill="#F1F1F1" height="113.1875" id="TeacherPartTime" rx="2.5" ry="2.5" style="stroke:#181818;stroke-width:0.5;" width="528" x="376" y="434.5"/><ellipse cx="573.75" cy="450.5" fill="#ADD1B2" rx="11" ry="11" style="stroke:#181818;stroke-width:1.0;"/><path d="M576.0938,446.1719 C575.1563,445.7344 574.5625,445.5938 573.6875,445.5938 C571.0625,445.5938 569.0625,447.6719 569.0625,450.3906 L569.0625,451.5156 C569.0625,454.0938 571.1719,455.9844 574.0625,455.9844 C575.2813,455.9844 576.4375,455.6875 577.1875,455.1406 C577.7656,454.7344 578.0938,454.2813 578.0938,453.8906 C578.0938,453.4375 577.7031,453.0469 577.2344,453.0469 C577.0156,453.0469 576.8125,453.125 576.625,453.3125 C576.1719,453.7969 576.1719,453.7969 575.9844,453.8906 C575.5625,454.1563 574.875,454.2813 574.1094,454.2813 C572.0625,454.2813 570.7656,453.1875 570.7656,451.4844 L570.7656,450.3906 C570.7656,448.6094 572.0156,447.2969 573.75,447.2969 C574.3281,447.2969 574.9375,447.4531 575.4063,447.7031 C575.8906,447.9844 576.0625,448.2031 576.1563,448.6094 C576.2188,449.0156 576.25,449.1406 576.3906,449.2656 C576.5313,449.4063 576.7656,449.5156 576.9844,449.5156 C577.25,449.5156 577.5156,449.375 577.6875,449.1563 C577.7969,449 577.8281,448.8125 577.8281,448.3906 L577.8281,446.9688 C577.8281,446.5313 577.8125,446.4063 577.7188,446.25 C577.5625,445.9844 577.2813,445.8438 576.9844,445.8438 C576.6875,445.8438 576.4844,445.9375 576.2656,446.25 L576.0938,446.1719 Z " fill="#000000"/><text fill="#000000" font-family="sans-serif" font-size="14" lengthAdjust="spacing" textLength="124" x="594.25" y="455.3467">TeacherPartTime</text><line style="stroke:#181818;stroke-width:0.5;" x1="377" x2="903" y1="466.5" y2="466.5"/><text fill="#000000" font-family="sans-serif" font-size="14" lengthAdjust="spacing" textLength="105" x="382" y="483.4951">-salary: double</text><text fill="#000000" font-family="sans-serif" font-size="14" lengthAdjust="spacing" textLength="119" x="382" y="499.792">-activeHours: int</text><line style="stroke:#181818;stroke-width:0.5;" x1="377" x2="903" y1="507.0938" y2="507.0938"/><text fill="#000000" font-family="sans-serif" font-size="14" lengthAdjust="spacing" textLength="516" x="382" y="524.0889">+TeacherPartTime(name: String, id: int, salary: double, activeHours: int)</text><text fill="#000000" font-family="sans-serif" font-size="14" lengthAdjust="spacing" textLength="195" x="382" y="540.3857">+calculatedSalary(): double</text></g><!--class Subject--><g id="elem_Subject"><rect codeLine="37" fill="#F1F1F1" height="162.0781" id="Subject" rx="2.5" ry="2.5" style="stroke:#181818;stroke-width:0.5;" width="302" x="489" y="583"/><ellipse cx="608.25" cy="599" fill="#ADD1B2" rx="11" ry="11" style="stroke:#181818;stroke-width:1.0;"/><path d="M610.5938,594.6719 C609.6563,594.2344 609.0625,594.0938 608.1875,594.0938 C605.5625,594.0938 603.5625,596.1719 603.5625,598.8906 L603.5625,600.0156 C603.5625,602.5938 605.6719,604.4844 608.5625,604.4844 C609.7813,604.4844 610.9375,604.1875 611.6875,603.6406 C612.2656,603.2344 612.5938,602.7813 612.5938,602.3906 C612.5938,601.9375 612.2031,601.5469 611.7344,601.5469 C611.5156,601.5469 611.3125,601.625 611.125,601.8125 C610.6719,602.2969 610.6719,602.2969 610.4844,602.3906 C610.0625,602.6563 609.375,602.7813 608.6094,602.7813 C606.5625,602.7813 605.2656,601.6875 605.2656,599.9844 L605.2656,598.8906 C605.2656,597.1094 606.5156,595.7969 608.25,595.7969 C608.8281,595.7969 609.4375,595.9531 609.9063,596.2031 C610.3906,596.4844 610.5625,596.7031 610.6563,597.1094 C610.7188,597.5156 610.75,597.6406 610.8906,597.7656 C611.0313,597.9063 611.2656,598.0156 611.4844,598.0156 C611.75,598.0156 612.0156,597.875 612.1875,597.6563 C612.2969,597.5 612.3281,597.3125 612.3281,596.8906 L612.3281,595.4688 C612.3281,595.0313 612.3125,594.9063 612.2188,594.75 C612.0625,594.4844 611.7813,594.3438 611.4844,594.3438 C611.1875,594.3438 610.9844,594.4375 610.7656,594.75 L610.5938,594.6719 Z " fill="#000000"/><text fill="#000000" font-family="sans-serif" font-size="14" lengthAdjust="spacing" textLength="55" x="628.75" y="603.8467">Subject</text><line style="stroke:#181818;stroke-width:0.5;" x1="490" x2="790" y1="615" y2="615"/><text fill="#000000" font-family="sans-serif" font-size="14" lengthAdjust="spacing" textLength="99" x="495" y="631.9951">-name: String</text><text fill="#000000" font-family="sans-serif" font-size="14" lengthAdjust="spacing" textLength="131" x="495" y="648.292">-classroom: String</text><text fill="#000000" font-family="sans-serif" font-size="14" lengthAdjust="spacing" textLength="188" x="495" y="664.5889">-sList:ArrayList&lt;Student&gt;</text><text fill="#000000" font-family="sans-serif" font-size="14" lengthAdjust="spacing" textLength="249" x="495" y="680.8857">-teacherFullTime: TeacherFullTime</text><text fill="#000000" font-family="sans-serif" font-size="14" lengthAdjust="spacing" textLength="261" x="495" y="697.1826">-teacherPartTime: TeacherPartTime</text><line style="stroke:#181818;stroke-width:0.5;" x1="490" x2="790" y1="704.4844" y2="704.4844"/><text fill="#000000" font-family="sans-serif" font-size="14" lengthAdjust="spacing" textLength="290" x="495" y="721.4795">+Subject(name:String,classroom:String)</text><text fill="#000000" font-family="sans-serif" font-size="14" lengthAdjust="spacing" textLength="263" x="495" y="737.7764">+addStudent(student:Student): void</text></g><!--class University--><g id="elem_University"><rect codeLine="47" fill="#F1F1F1" height="227.2656" id="University" rx="2.5" ry="2.5" style="stroke:#181818;stroke-width:0.5;" width="429" x="425.5" y="780.5"/><ellipse cx="600.25" cy="796.5" fill="#ADD1B2" rx="11" ry="11" style="stroke:#181818;stroke-width:1.0;"/><path d="M602.5938,792.1719 C601.6563,791.7344 601.0625,791.5938 600.1875,791.5938 C597.5625,791.5938 595.5625,793.6719 595.5625,796.3906 L595.5625,797.5156 C595.5625,800.0938 597.6719,801.9844 600.5625,801.9844 C601.7813,801.9844 602.9375,801.6875 603.6875,801.1406 C604.2656,800.7344 604.5938,800.2813 604.5938,799.8906 C604.5938,799.4375 604.2031,799.0469 603.7344,799.0469 C603.5156,799.0469 603.3125,799.125 603.125,799.3125 C602.6719,799.7969 602.6719,799.7969 602.4844,799.8906 C602.0625,800.1563 601.375,800.2813 600.6094,800.2813 C598.5625,800.2813 597.2656,799.1875 597.2656,797.4844 L597.2656,796.3906 C597.2656,794.6094 598.5156,793.2969 600.25,793.2969 C600.8281,793.2969 601.4375,793.4531 601.9063,793.7031 C602.3906,793.9844 602.5625,794.2031 602.6563,794.6094 C602.7188,795.0156 602.75,795.1406 602.8906,795.2656 C603.0313,795.4063 603.2656,795.5156 603.4844,795.5156 C603.75,795.5156 604.0156,795.375 604.1875,795.1563 C604.2969,795 604.3281,794.8125 604.3281,794.3906 L604.3281,792.9688 C604.3281,792.5313 604.3125,792.4063 604.2188,792.25 C604.0625,791.9844 603.7813,791.8438 603.4844,791.8438 C603.1875,791.8438 602.9844,791.9375 602.7656,792.25 L602.5938,792.1719 Z " fill="#000000"/><text fill="#000000" font-family="sans-serif" font-size="14" lengthAdjust="spacing" textLength="71" x="620.75" y="801.3467">University</text><line style="stroke:#181818;stroke-width:0.5;" x1="426.5" x2="853.5" y1="812.5" y2="812.5"/><text fill="#000000" font-family="sans-serif" font-size="14" lengthAdjust="spacing" textLength="192" x="431.5" y="829.4951">-sList: ArrayList&lt;Student&gt;</text><text fill="#000000" font-family="sans-serif" font-size="14" lengthAdjust="spacing" textLength="197" x="431.5" y="845.792">-suList: ArrayList&lt;Subject&gt;</text><text fill="#000000" font-family="sans-serif" font-size="14" lengthAdjust="spacing" textLength="258" x="431.5" y="862.0889">-tfList: ArrayList&lt;TeacherFullTime&gt;</text><text fill="#000000" font-family="sans-serif" font-size="14" lengthAdjust="spacing" textLength="268" x="431.5" y="878.3857">-tpList: ArrayList&lt;TeacherPartTime&gt;</text><line style="stroke:#181818;stroke-width:0.5;" x1="426.5" x2="853.5" y1="885.6875" y2="885.6875"/><text fill="#000000" font-family="sans-serif" font-size="14" lengthAdjust="spacing" textLength="92" x="431.5" y="902.6826">+University()</text><text fill="#000000" font-family="sans-serif" font-size="14" lengthAdjust="spacing" textLength="267" x="431.5" y="918.9795">+addStudent(student: Student): void</text><text fill="#000000" font-family="sans-serif" font-size="14" lengthAdjust="spacing" textLength="265" x="431.5" y="935.2764">+addSubject(subjectt: Subject): void</text><text fill="#000000" font-family="sans-serif" font-size="14" lengthAdjust="spacing" textLength="402" x="431.5" y="951.5732">+addTeacherFt(teacherFullTime: TeacherFullTime): void</text><text fill="#000000" font-family="sans-serif" font-size="14" lengthAdjust="spacing" textLength="417" x="431.5" y="967.8701">+addTeacherPT(teacherPartTime: TeacherPartTime): void</text><text fill="#000000" font-family="sans-serif" font-size="14" lengthAdjust="spacing" textLength="247" x="431.5" y="984.167">+findStudentById(id: int): Student</text><text fill="#000000" font-family="sans-serif" font-size="14" lengthAdjust="spacing" textLength="349" x="431.5" y="1000.4639">+findClassByStudent(id: int):ArrayList&lt;Subject&gt;</text></g><!--class UniversityView--><g id="elem_UniversityView"><rect codeLine="64" fill="#F1F1F1" height="276.1563" id="UniversityView" rx="2.5" ry="2.5" style="stroke:#181818;stroke-width:0.5;" width="1092" x="94" y="1083"/><ellipse cx="583.25" cy="1099" fill="#ADD1B2" rx="11" ry="11" style="stroke:#181818;stroke-width:1.0;"/><path d="M585.5938,1094.6719 C584.6563,1094.2344 584.0625,1094.0938 583.1875,1094.0938 C580.5625,1094.0938 578.5625,1096.1719 578.5625,1098.8906 L578.5625,1100.0156 C578.5625,1102.5938 580.6719,1104.4844 583.5625,1104.4844 C584.7813,1104.4844 585.9375,1104.1875 586.6875,1103.6406 C587.2656,1103.2344 587.5938,1102.7813 587.5938,1102.3906 C587.5938,1101.9375 587.2031,1101.5469 586.7344,1101.5469 C586.5156,1101.5469 586.3125,1101.625 586.125,1101.8125 C585.6719,1102.2969 585.6719,1102.2969 585.4844,1102.3906 C585.0625,1102.6563 584.375,1102.7813 583.6094,1102.7813 C581.5625,1102.7813 580.2656,1101.6875 580.2656,1099.9844 L580.2656,1098.8906 C580.2656,1097.1094 581.5156,1095.7969 583.25,1095.7969 C583.8281,1095.7969 584.4375,1095.9531 584.9063,1096.2031 C585.3906,1096.4844 585.5625,1096.7031 585.6563,1097.1094 C585.7188,1097.5156 585.75,1097.6406 585.8906,1097.7656 C586.0313,1097.9063 586.2656,1098.0156 586.4844,1098.0156 C586.75,1098.0156 587.0156,1097.875 587.1875,1097.6563 C587.2969,1097.5 587.3281,1097.3125 587.3281,1096.8906 L587.3281,1095.4688 C587.3281,1095.0313 587.3125,1094.9063 587.2188,1094.75 C587.0625,1094.4844 586.7813,1094.3438 586.4844,1094.3438 C586.1875,1094.3438 585.9844,1094.4375 585.7656,1094.75 L585.5938,1094.6719 Z " fill="#000000"/><text fill="#000000" font-family="sans-serif" font-size="14" lengthAdjust="spacing" textLength="105" x="603.75" y="1103.8467">UniversityView</text><line style="stroke:#181818;stroke-width:0.5;" x1="95" x2="1185" y1="1115" y2="1115"/><text fill="#000000" font-family="sans-serif" font-size="14" lengthAdjust="spacing" textLength="88" x="100" y="1131.9951">-sc: Scanner</text><line style="stroke:#181818;stroke-width:0.5;" x1="95" x2="1185" y1="1139.2969" y2="1139.2969"/><text fill="#000000" font-family="sans-serif" font-size="14" lengthAdjust="spacing" textLength="126" x="100" y="1156.292">+UniversityView()</text><text fill="#000000" font-family="sans-serif" font-size="14" lengthAdjust="spacing" textLength="134" x="100" y="1172.5889">+showMenu(): void</text><text fill="#000000" font-family="sans-serif" font-size="14" lengthAdjust="spacing" textLength="157" x="100" y="1188.8857">+showSubMenu():void</text><text fill="#000000" font-family="sans-serif" font-size="14" lengthAdjust="spacing" textLength="113" x="100" y="1205.1826">+getInput(): int</text><text fill="#000000" font-family="sans-serif" font-size="14" lengthAdjust="spacing" textLength="877" x="100" y="1221.4795">+printAllProfessors(teacherFullTimes: ArrayList&lt;TeacherFullTime&gt;,teacherPartTimes: ArrayList&lt;TeacherPartTime&gt;): void</text><text fill="#000000" font-family="sans-serif" font-size="14" lengthAdjust="spacing" textLength="376" x="100" y="1237.7764">+printAllClasses(subjects: ArrayList&lt;Subject&gt;): void</text><text fill="#000000" font-family="sans-serif" font-size="14" lengthAdjust="spacing" text-decoration="underline" textLength="450" x="100" y="1254.0732">+printInfoClass(subjects: ArrayList&lt;Subject&gt;,choice: int): void</text><text fill="#000000" font-family="sans-serif" font-size="14" lengthAdjust="spacing" textLength="189" x="100" y="1270.3701">+createStudent():Student</text><text fill="#000000" font-family="sans-serif" font-size="14" lengthAdjust="spacing" textLength="982" x="100" y="1286.667">+choiceTeacher(teacherFullTimes: ArrayList&lt;TeacherFullTime&gt;,  teacherPartTimes: ArrayList&lt;TeacherPartTime&gt;,subject: Subject): void</text><text fill="#000000" font-family="sans-serif" font-size="14" lengthAdjust="spacing" textLength="513" x="100" y="1302.9639">+choiceStudents(students: ArrayList&lt;Student&gt;, subject: Subject): void</text><text fill="#000000" font-family="sans-serif" font-size="14" lengthAdjust="spacing" textLength="1080" x="100" y="1319.2607">+createClass(teacherFullTimes: ArrayList&lt;TeacherFullTime&gt;,teacherPartTimes: ArrayList&lt;TeacherPartTime&gt;, students: ArrayList&lt;Student&gt;): Subject</text><text fill="#000000" font-family="sans-serif" font-size="14" lengthAdjust="spacing" textLength="121" x="100" y="1335.5576">+StudentId(): int</text><text fill="#000000" font-family="sans-serif" font-size="14" lengthAdjust="spacing" textLength="554" x="100" y="1351.8545">showClassesByStudent(subjects: ArrayList&lt;Subject&gt;, student: Student): void</text></g><!--class UniversityController--><g id="elem_UniversityController"><rect codeLine="83" fill="#F1F1F1" height="113.1875" id="UniversityController" rx="2.5" ry="2.5" style="stroke:#181818;stroke-width:0.5;" width="456" x="412" y="1434.5"/><ellipse cx="563.75" cy="1450.5" fill="#ADD1B2" rx="11" ry="11" style="stroke:#181818;stroke-width:1.0;"/><path d="M566.0938,1446.1719 C565.1563,1445.7344 564.5625,1445.5938 563.6875,1445.5938 C561.0625,1445.5938 559.0625,1447.6719 559.0625,1450.3906 L559.0625,1451.5156 C559.0625,1454.0938 561.1719,1455.9844 564.0625,1455.9844 C565.2813,1455.9844 566.4375,1455.6875 567.1875,1455.1406 C567.7656,1454.7344 568.0938,1454.2813 568.0938,1453.8906 C568.0938,1453.4375 567.7031,1453.0469 567.2344,1453.0469 C567.0156,1453.0469 566.8125,1453.125 566.625,1453.3125 C566.1719,1453.7969 566.1719,1453.7969 565.9844,1453.8906 C565.5625,1454.1563 564.875,1454.2813 564.1094,1454.2813 C562.0625,1454.2813 560.7656,1453.1875 560.7656,1451.4844 L560.7656,1450.3906 C560.7656,1448.6094 562.0156,1447.2969 563.75,1447.2969 C564.3281,1447.2969 564.9375,1447.4531 565.4063,1447.7031 C565.8906,1447.9844 566.0625,1448.2031 566.1563,1448.6094 C566.2188,1449.0156 566.25,1449.1406 566.3906,1449.2656 C566.5313,1449.4063 566.7656,1449.5156 566.9844,1449.5156 C567.25,1449.5156 567.5156,1449.375 567.6875,1449.1563 C567.7969,1449 567.8281,1448.8125 567.8281,1448.3906 L567.8281,1446.9688 C567.8281,1446.5313 567.8125,1446.4063 567.7188,1446.25 C567.5625,1445.9844 567.2813,1445.8438 566.9844,1445.8438 C566.6875,1445.8438 566.4844,1445.9375 566.2656,1446.25 L566.0938,1446.1719 Z " fill="#000000"/><text fill="#000000" font-family="sans-serif" font-size="14" lengthAdjust="spacing" textLength="144" x="584.25" y="1455.3467">UniversityController</text><line style="stroke:#181818;stroke-width:0.5;" x1="413" x2="867" y1="1466.5" y2="1466.5"/><text fill="#000000" font-family="sans-serif" font-size="14" lengthAdjust="spacing" textLength="131" x="418" y="1483.4951">-model: University</text><text fill="#000000" font-family="sans-serif" font-size="14" lengthAdjust="spacing" textLength="152" x="418" y="1499.792">-view: UniversityView</text><line style="stroke:#181818;stroke-width:0.5;" x1="413" x2="867" y1="1507.0938" y2="1507.0938"/><text fill="#000000" font-family="sans-serif" font-size="14" lengthAdjust="spacing" textLength="444" x="418" y="1524.0889">+UniversityController(model: University, view: UniversityView)</text><text fill="#000000" font-family="sans-serif" font-size="14" lengthAdjust="spacing" textLength="83" x="418" y="1540.3857">+run(): void</text></g><!--class Main--><g id="elem_Main"><rect codeLine="91" fill="#F1F1F1" height="64.2969" id="Main" rx="2.5" ry="2.5" style="stroke:#181818;stroke-width:0.5;" width="200" x="540" y="1652"/><ellipse cx="619.25" cy="1668" fill="#ADD1B2" rx="11" ry="11" style="stroke:#181818;stroke-width:1.0;"/><path d="M621.5938,1663.6719 C620.6563,1663.2344 620.0625,1663.0938 619.1875,1663.0938 C616.5625,1663.0938 614.5625,1665.1719 614.5625,1667.8906 L614.5625,1669.0156 C614.5625,1671.5938 616.6719,1673.4844 619.5625,1673.4844 C620.7813,1673.4844 621.9375,1673.1875 622.6875,1672.6406 C623.2656,1672.2344 623.5938,1671.7813 623.5938,1671.3906 C623.5938,1670.9375 623.2031,1670.5469 622.7344,1670.5469 C622.5156,1670.5469 622.3125,1670.625 622.125,1670.8125 C621.6719,1671.2969 621.6719,1671.2969 621.4844,1671.3906 C621.0625,1671.6563 620.375,1671.7813 619.6094,1671.7813 C617.5625,1671.7813 616.2656,1670.6875 616.2656,1668.9844 L616.2656,1667.8906 C616.2656,1666.1094 617.5156,1664.7969 619.25,1664.7969 C619.8281,1664.7969 620.4375,1664.9531 620.9063,1665.2031 C621.3906,1665.4844 621.5625,1665.7031 621.6563,1666.1094 C621.7188,1666.5156 621.75,1666.6406 621.8906,1666.7656 C622.0313,1666.9063 622.2656,1667.0156 622.4844,1667.0156 C622.75,1667.0156 623.0156,1666.875 623.1875,1666.6563 C623.2969,1666.5 623.3281,1666.3125 623.3281,1665.8906 L623.3281,1664.4688 C623.3281,1664.0313 623.3125,1663.9063 623.2188,1663.75 C623.0625,1663.4844 622.7813,1663.3438 622.4844,1663.3438 C622.1875,1663.3438 621.9844,1663.4375 621.7656,1663.75 L621.5938,1663.6719 Z " fill="#000000"/><text fill="#000000" font-family="sans-serif" font-size="14" lengthAdjust="spacing" textLength="33" x="639.75" y="1672.8467">Main</text><line style="stroke:#181818;stroke-width:0.5;" x1="541" x2="739" y1="1684" y2="1684"/><line style="stroke:#181818;stroke-width:0.5;" x1="541" x2="739" y1="1692" y2="1692"/><text fill="#000000" font-family="sans-serif" font-size="14" lengthAdjust="spacing" text-decoration="underline" textLength="188" x="546" y="1708.9951">+main(args: String[]): void</text></g><!--link Student to Person--><g id="link_Student_Person"><path codeLine="15" d="M788.785,211.48 C905.309,215.31 1070.81,228.48 1210,269 C1231.46,275.25 1237.3546,276.6634 1257.6746,286.5834 " fill="none" id="Student-to-Person" style="stroke:#181818;stroke-width:1.0;"/><polygon fill="none" points="1273.85,294.48,1260.3068,281.1916,1255.0424,291.9752,1273.85,294.48" style="stroke:#181818;stroke-width:1.0;"/></g><!--link TeacherFullTime to Person--><g id="link_TeacherFullTime_Person"><path codeLine="22" d="M919.043,343 C1032.92,343 1140.2,343 1227.58,343 " fill="none" id="TeacherFullTime-to-Person" style="stroke:#181818;stroke-width:1.0;"/><polygon fill="none" points="1245.58,343,1227.58,337,1227.58,349,1245.58,343" style="stroke:#181818;stroke-width:1.0;"/></g><!--link TeacherPartTime to Person--><g id="link_TeacherPartTime_Person"><path codeLine="29" d="M904.087,475.34 C1001.7,464.72 1112.37,446.9 1210,417 C1230.96,410.58 1236.3754,409.2677 1256.3654,399.5377 " fill="none" id="TeacherPartTime-to-Person" style="stroke:#181818;stroke-width:1.0;"/><polygon fill="none" points="1272.55,391.66,1253.7395,394.1429,1258.9913,404.9326,1272.55,391.66" style="stroke:#181818;stroke-width:1.0;"/></g><!--SRC=[jLRBYjim5DtxAmIpSMWoPDEDAGEP0TD01mAP5ahfGf5l77KSoKZoJDCq_rxPaX9PVcHcKItoaCwzkkVSXrt0LY75aQ3vJg6C2Y2ASeQYI3vJLcA1zuWKMCg5Ke9kAWLBmjcQ_W4qZ_GgCNd6EI1SbhTSvBTvmJUOgTizpw10DtEzqlGOHKYlnWzQWP2S7PkTUjqWXlUGeBNspt9lcsO9eaoTTpvOqzZ7JnriOkuuDPzhLMN0r6pszyxOUFVRiqi0CwG915TPKFzLqxE1lRHUtkrFWCaEH5eLnHFT0-eD8m3vuKXSO758KCQhJG7U0VmkGL1W1Bu35ZAK9t0v57pR_RJNwyHpIt11gW8hoDQDPJnfXTRYlC92rNVNbD4GPmTw4sUiw_45FlDgaAzpzrQ-eSStSlN8saAgDhzqj_WiUYjvPl22yttFcVn2fKeMGk13_UkJhRmx3wBQUKt2H7UXJf8arCYZQiCtgbdHBe6Q3LyQd6MkAwJvJkn_hT4BfrbNeQzC2oqaLOTZXp4QfIoh3iY4sz9b6u82OLhWSW3ifBdpk5u2Zwz8W08Dsc0hiJJVDThywaMxu5LyBU5Zvgkd-5eHTCstb3bczuTb5hkPUgONO1_gzDuVd1Xd-42wJb5q6dvKl51uHJTfklWudnzxg-URHhGgYEZ026OCH6_IQdmhSNB7Nn-1LN6NUdsaWxMdmM4EQidAIjLsxTbJwlPGYw9O2Ru5ARcGOTRaM65EWnp9iSBi1krkR_80qXMOx6kOhlLHAgmeEHatIxRbZPzHBrEouvI0Aul08n6WPwOhXqdIhHfZRfczJog4tYFMrB8OwJKJYurHkbQMVID9Fpskksl86md_MmteG4R2d9p3ymUyETJj75HlNVAsSYuzF9fyD3RkJcFDhLyMbU150Q9kyJGTQl67CyvlzEOjCl5WtbazDfAWwNkdmSLrtF4txNNZZmvHiRZ3raJ_YAbzZ_LwQgytOonowPxrFtuwyzC_]--></g></svg>